# Blender 4.0.1
# www.blender.org
mtllib Grass.mtl
o Grass
v -0.728924 -0.049243 -0.732781
v -1.310124 -0.224481 0.229702
v -3.482538 8.893941 -0.767284
v -4.063738 8.718701 0.195200
v -1.019524 -0.136862 -0.251539
v -1.888624 4.635910 0.765301
v -3.773137 8.806322 -0.286042
v -1.307425 4.811149 -0.197182
v -1.598023 4.723529 0.284060
v -2.482264 6.877226 0.142229
v -1.081237 2.235375 0.143107
v -1.371837 2.147755 0.624349
v -2.772864 6.789607 0.623471
v -2.191665 6.964846 -0.339013
v -0.790637 2.322994 -0.338134
v -1.996734 5.840517 0.246666
v -3.125310 7.949999 -0.050758
v -1.274444 3.500923 0.256855
v -1.019409 1.017383 -0.041317
v -1.565045 3.413303 0.738097
v -1.310011 0.929764 0.439925
v -2.287334 5.752898 0.727907
v -3.415908 7.862379 0.430483
v -1.706134 5.928136 -0.234576
v -2.834711 8.037618 -0.532000
v -0.983844 3.588542 -0.224386
v -0.728810 1.105003 -0.522558
vn -0.8597 0.0916 -0.5025
vn -0.8594 0.0623 -0.5076
vn -0.8537 -0.0252 -0.5201
vn -0.8593 0.0621 -0.5076
vn -0.8354 -0.1435 -0.5306
vn -0.8544 -0.0242 -0.5190
vn -0.8075 -0.2517 -0.5334
vn -0.8351 -0.1439 -0.5310
vn -0.7716 -0.3518 -0.5300
vn -0.7211 -0.4589 -0.5190
vn -0.6633 -0.5553 -0.5017
vn -0.7239 -0.4569 -0.5169
vn -0.6259 -0.6078 -0.4886
vn -0.6588 -0.5581 -0.5045
vn -0.7211 -0.4590 -0.5190
vn -0.8537 -0.0251 -0.5201
vn -0.8353 -0.1439 -0.5306
vt 0.552035 0.000000
vt 0.500000 0.125000
vt 0.500000 0.000000
vt 0.552035 0.250000
vt 0.552035 0.125000
vt 0.552035 0.375000
vt 0.500000 0.250000
vt 0.500000 0.500000
vt 0.500000 0.375000
vt 0.552035 0.625000
vt 0.500000 0.625000
vt 0.552035 0.750000
vt 0.552035 0.875000
vt 0.500000 0.750000
vt 0.552035 1.000000
vt 0.500000 0.875000
vt 0.447965 0.500000
vt 0.447965 0.625000
vt 0.447965 0.750000
vt 0.500000 1.000000
vt 0.447965 0.875000
vt 0.447965 0.125000
vt 0.447965 0.000000
vt 0.447965 0.250000
vt 0.447965 0.375000
vt 0.552035 0.500000
vt 0.447965 1.000000
s 1
usemtl Grass:Grass_MAT
f 2/1/1 19/2/2 5/3/1
f 12/4/3 19/2/2 21/5/4
f 20/6/5 11/7/6 12/4/3
f 20/6/5 9/8/7 18/9/8
f 9/8/7 22/10/9 16/11/9
f 13/12/10 16/11/9 22/10/9
f 23/13/11 10/14/12 13/12/10
f 4/15/13 17/16/14 23/13/11
f 16/11/9 8/17/7 9/8/7
f 10/14/12 24/18/9 16/11/9
f 17/16/14 14/19/15 10/14/12
f 7/20/13 25/21/11 17/16/14
f 5/3/1 27/22/4 1/23/1
f 19/2/2 15/24/16 27/22/4
f 18/9/8 15/24/16 11/7/6
f 9/8/7 26/25/17 18/9/8
f 2/1/1 21/5/4 19/2/2
f 12/4/3 11/7/6 19/2/2
f 20/6/5 18/9/8 11/7/6
f 20/6/5 6/26/7 9/8/7
f 9/8/7 6/26/7 22/10/9
f 13/12/10 10/14/12 16/11/9
f 23/13/11 17/16/14 10/14/12
f 4/15/13 7/20/13 17/16/14
f 16/11/9 24/18/9 8/17/7
f 10/14/12 14/19/15 24/18/9
f 17/16/14 25/21/11 14/19/15
f 7/20/13 3/27/13 25/21/11
f 5/3/1 19/2/2 27/22/4
f 19/2/2 11/7/6 15/24/16
f 18/9/8 26/25/17 15/24/16
f 9/8/7 8/17/7 26/25/17
o Grass
v 2.039376 -0.135174 -1.530380
v 2.378220 -0.023686 -0.449810
v 3.328713 5.274091 -2.492790
v 3.667554 5.385580 -1.412220
v 2.208799 -0.079430 -0.990095
v 3.498133 5.329835 -1.952505
v 3.014633 3.301361 -1.591601
v 3.336966 4.653677 -1.832204
v 2.692300 1.949045 -1.350999
v 2.369965 0.596729 -1.110396
v 2.861719 2.004789 -0.810714
v 2.539386 0.652472 -0.570111
v 3.184052 3.357105 -1.051316
v 3.506389 4.709421 -1.291919
v 2.845210 3.245617 -2.131886
v 3.167547 4.597933 -2.372488
v 2.522877 1.893301 -1.891284
v 2.200544 0.540985 -1.650681
vn -0.9269 0.2677 0.2630
vt 0.500000 0.000000
vt 0.552035 0.125000
vt 0.500000 0.125000
vt 0.552035 0.375000
vt 0.500000 0.375000
vt 0.552035 0.625000
vt 0.500000 0.625000
vt 0.500000 0.875000
vt 0.552035 0.875000
vt 0.500000 1.000000
vt 0.447965 0.625000
vt 0.447965 0.375000
vt 0.447965 0.875000
vt 0.447965 0.125000
vt 0.447965 0.000000
vt 0.552035 0.000000
vt 0.552035 1.000000
vt 0.447965 1.000000
s 1
usemtl Grass:Grass_MAT
f 32/28/18 39/29/18 37/30/18
f 38/31/18 37/30/18 39/29/18
f 36/32/18 40/33/18 34/34/18
f 40/33/18 35/35/18 34/34/18
f 41/36/18 33/37/18 35/35/18
f 36/32/18 42/38/18 44/39/18
f 35/35/18 42/38/18 34/34/18
f 33/37/18 43/40/18 35/35/18
f 32/28/18 45/41/18 28/42/18
f 36/32/18 45/41/18 37/30/18
f 32/28/18 29/43/18 39/29/18
f 38/31/18 36/32/18 37/30/18
f 36/32/18 38/31/18 40/33/18
f 40/33/18 41/36/18 35/35/18
f 41/36/18 31/44/18 33/37/18
f 36/32/18 34/34/18 42/38/18
f 35/35/18 43/40/18 42/38/18
f 33/37/18 30/45/18 43/40/18
f 32/28/18 37/30/18 45/41/18
f 36/32/18 44/39/18 45/41/18
o Grass
v 0.802945 -0.069932 -0.504843
v 0.280228 -0.069932 0.505921
v -0.847083 10.724729 -1.358152
v -1.369798 10.724729 -0.347388
v 0.541586 -0.069932 0.000539
v -0.092870 5.396183 0.312974
v -1.108440 10.724729 -0.852770
v 0.429845 5.396183 -0.697791
v 0.168488 5.396183 -0.192409
v -0.289886 8.104332 -0.429456
v 0.438890 2.666777 -0.052571
v 0.177532 2.666777 0.452812
v -0.551244 8.104332 0.075926
v -0.028528 8.104332 -0.934839
v 0.700248 2.666777 -0.557953
v -0.031500 6.746412 -0.295832
v -0.653803 9.433265 -0.617655
v 0.324144 4.034802 -0.111911
v 0.492588 1.296898 -0.024801
v 0.062786 4.034802 0.393471
v 0.231230 1.296898 0.480582
v -0.292858 6.746412 0.209550
v -0.915161 9.433265 -0.112273
v 0.229859 6.746412 -0.801214
v -0.392445 9.433265 -1.123037
v 0.585502 4.034802 -0.617294
v 0.753947 1.296898 -0.530183
vn -0.8875 -0.0403 -0.4590
vn -0.8875 -0.0422 -0.4589
vn -0.8861 -0.0691 -0.4583
vn -0.8828 -0.1109 -0.4565
vn -0.8787 -0.1461 -0.4544
vn -0.8726 -0.1870 -0.4513
vn -0.8595 -0.2523 -0.4445
vn -0.8379 -0.3318 -0.4333
vn -0.8258 -0.3684 -0.4270
vn -0.8875 -0.0422 -0.4590
vt 0.552035 0.000000
vt 0.500000 0.125000
vt 0.500000 0.000000
vt 0.552035 0.125000
vt 0.500000 0.250000
vt 0.552035 0.375000
vt 0.552035 0.250000
vt 0.552035 0.500000
vt 0.500000 0.375000
vt 0.500000 0.625000
vt 0.500000 0.500000
vt 0.552035 0.750000
vt 0.552035 0.625000
vt 0.500000 0.875000
vt 0.500000 0.750000
vt 0.552035 1.000000
vt 0.552035 0.875000
vt 0.447965 0.500000
vt 0.447965 0.750000
vt 0.447965 0.625000
vt 0.500000 1.000000
vt 0.447965 0.875000
vt 0.447965 0.125000
vt 0.447965 0.000000
vt 0.447965 0.250000
vt 0.447965 0.375000
vt 0.447965 1.000000
s 1
usemtl Grass:Grass_MAT
f 47/46/19 64/47/20 50/48/19
f 66/49/20 56/50/21 64/47/20
f 65/51/22 56/50/21 57/52/21
f 51/53/23 63/54/22 65/51/22
f 51/53/23 61/55/24 54/56/23
f 58/57/25 61/55/24 67/58/24
f 58/57/25 62/59/26 55/60/25
f 49/61/27 62/59/26 68/62/26
f 61/55/24 53/63/23 54/56/23
f 61/55/24 59/64/25 69/65/24
f 62/59/26 59/64/25 55/60/25
f 52/66/27 70/67/26 62/59/26
f 50/48/19 72/68/28 46/69/19
f 64/47/20 60/70/21 72/68/28
f 56/50/21 71/71/22 60/70/21
f 54/56/23 71/71/22 63/54/22
f 47/46/19 66/49/20 64/47/20
f 66/49/20 57/52/21 56/50/21
f 65/51/22 63/54/22 56/50/21
f 51/53/23 54/56/23 63/54/22
f 51/53/23 67/58/24 61/55/24
f 58/57/25 55/60/25 61/55/24
f 58/57/25 68/62/26 62/59/26
f 49/61/27 52/66/27 62/59/26
f 61/55/24 69/65/24 53/63/23
f 61/55/24 55/60/25 59/64/25
f 62/59/26 70/67/26 59/64/25
f 52/66/27 48/72/27 70/67/26
f 50/48/19 64/47/20 72/68/28
f 64/47/20 56/50/21 60/70/21
f 56/50/21 63/54/22 71/71/22
f 54/56/23 53/63/23 71/71/22
o Grass
v 1.129070 -0.119337 0.753905
v 1.578446 -0.119337 -0.291531
v 5.458061 7.965301 2.614704
v 5.907437 7.965301 1.569268
v 1.353758 -0.119337 0.231187
v 2.981877 4.561624 0.311728
v 5.682749 7.965301 2.091986
v 2.532502 4.561624 1.357164
v 2.757189 4.561624 0.834446
v 4.028337 6.439398 1.380844
v 1.810590 2.234342 0.427554
v 2.035278 2.234342 -0.095164
v 4.253026 6.439398 0.858126
v 3.803651 6.439398 1.903562
v 1.585902 2.234342 0.950272
v 3.354527 5.554242 1.091209
v 4.871002 7.311357 1.743060
v 2.220042 3.439851 0.603556
v 1.544869 1.035308 0.313335
v 2.444731 3.439851 0.080838
v 1.769557 1.035308 -0.209383
v 3.579215 5.554242 0.568491
v 5.095688 7.311357 1.220341
v 3.129838 5.554242 1.613927
v 4.646314 7.311357 2.265778
v 1.995354 3.439851 1.126274
v 1.320181 1.035308 0.836053
vn 0.9042 -0.1773 0.3887
vn 0.8990 -0.2063 0.3864
vn 0.8786 -0.2923 0.3777
vn 0.8989 -0.2064 0.3864
vn 0.8401 -0.4049 0.3611
vn 0.8794 -0.2911 0.3768
vn 0.7933 -0.5043 0.3410
vn 0.8397 -0.4053 0.3615
vn 0.7396 -0.5932 0.3179
vn 0.7920 -0.5057 0.3422
vn 0.6696 -0.6847 0.2878
vn 0.5939 -0.7630 0.2553
vn 0.6725 -0.6826 0.2860
vn 0.5466 -0.8038 0.2349
vn 0.5892 -0.7657 0.2579
vn 0.7933 -0.5044 0.3410
vn 0.7395 -0.5933 0.3179
vn 0.5939 -0.7629 0.2553
vn 0.8989 -0.2067 0.3864
vn 0.8399 -0.4053 0.3610
vt 0.552035 0.000000
vt 0.500000 0.125000
vt 0.500000 0.000000
vt 0.552035 0.250000
vt 0.552035 0.125000
vt 0.552035 0.375000
vt 0.500000 0.250000
vt 0.552035 0.500000
vt 0.500000 0.375000
vt 0.500000 0.625000
vt 0.500000 0.500000
vt 0.552035 0.750000
vt 0.552035 0.625000
vt 0.552035 0.875000
vt 0.500000 0.750000
vt 0.552035 1.000000
vt 0.500000 0.875000
vt 0.447965 0.500000
vt 0.447965 0.625000
vt 0.447965 0.750000
vt 0.500000 1.000000
vt 0.447965 0.875000
vt 0.447965 0.125000
vt 0.447965 0.000000
vt 0.447965 0.250000
vt 0.447965 0.375000
vt 0.447965 1.000000
s 1
f 74/73/29 91/74/30 77/75/29
f 84/76/31 91/74/30 93/77/32
f 92/78/33 83/79/34 84/76/31
f 78/80/35 90/81/36 92/78/33
f 78/80/35 88/82/37 81/83/38
f 85/84/39 88/82/37 94/85/37
f 95/86/40 82/87/41 85/84/39
f 76/88/42 89/89/43 95/86/40
f 88/82/37 80/90/44 81/83/38
f 82/87/41 96/91/45 88/82/37
f 89/89/43 86/92/39 82/87/41
f 79/93/42 97/94/46 89/89/43
f 77/75/29 99/95/47 73/96/29
f 83/79/34 99/95/47 91/74/30
f 90/81/36 87/97/31 83/79/34
f 81/83/38 98/98/48 90/81/36
f 74/73/29 93/77/32 91/74/30
f 84/76/31 83/79/34 91/74/30
f 92/78/33 90/81/36 83/79/34
f 78/80/35 81/83/38 90/81/36
f 78/80/35 94/85/37 88/82/37
f 85/84/39 82/87/41 88/82/37
f 95/86/40 89/89/43 82/87/41
f 76/88/42 79/93/42 89/89/43
f 88/82/37 96/91/45 80/90/44
f 82/87/41 86/92/39 96/91/45
f 89/89/43 97/94/46 86/92/39
f 79/93/42 75/99/42 97/94/46
f 77/75/29 91/74/30 99/95/47
f 83/79/34 87/97/31 99/95/47
f 90/81/36 98/98/48 87/97/31
f 81/83/38 80/90/44 98/98/48
o Grass
v 1.469072 -0.069816 0.342303
v 0.651223 -0.069816 -0.448897
v 3.498494 10.487468 -1.755471
v 2.680642 10.487468 -2.546672
v 1.060148 -0.069816 -0.053297
v 1.318669 5.327717 -1.138826
v 3.089567 10.487468 -2.151072
v 2.136521 5.327717 -0.347625
v 1.727596 5.327717 -0.743226
v 2.271331 7.971354 -1.305276
v 1.328808 2.641943 -0.331007
v 0.919883 2.641943 -0.726608
v 1.862406 7.971354 -1.700876
v 2.680255 7.971354 -0.909675
v 1.737735 2.641943 0.064593
v 1.976455 6.648969 -1.000467
v 2.646408 9.253116 -1.692986
v 1.512497 3.990419 -0.520884
v 1.192542 1.284809 -0.190151
v 1.103574 3.990419 -0.916484
v 0.783617 1.284809 -0.585752
v 1.567528 6.648969 -1.396067
v 2.237484 9.253116 -2.088587
v 2.385380 6.648969 -0.604867
v 3.055333 9.253116 -1.297386
v 1.921424 3.990419 -0.125283
v 1.601467 1.284809 0.205449
vn 0.6885 -0.1392 -0.7117
vn 0.6883 -0.1411 -0.7115
vn 0.6855 -0.1676 -0.7085
vn 0.6800 -0.2088 -0.7029
vn 0.6744 -0.2435 -0.6971
vn 0.6668 -0.2835 -0.6892
vn 0.6521 -0.3470 -0.6741
vn 0.6298 -0.4237 -0.6510
vn 0.6178 -0.4588 -0.6386
vn 0.6800 -0.2089 -0.7029
vt 0.552035 0.000000
vt 0.500000 0.125000
vt 0.500000 0.000000
vt 0.552035 0.250000
vt 0.552035 0.125000
vt 0.552035 0.375000
vt 0.500000 0.250000
vt 0.552035 0.500000
vt 0.500000 0.375000
vt 0.500000 0.500000
vt 0.552035 0.625000
vt 0.500000 0.625000
vt 0.552035 0.750000
vt 0.552035 0.875000
vt 0.500000 0.750000
vt 0.552035 1.000000
vt 0.500000 0.875000
vt 0.447965 0.625000
vt 0.447965 0.500000
vt 0.447965 0.750000
vt 0.500000 1.000000
vt 0.447965 0.875000
vt 0.447965 0.125000
vt 0.447965 0.000000
vt 0.447965 0.250000
vt 0.447965 0.375000
vt 0.447965 1.000000
s 1
usemtl Grass:Grass_MAT
f 101/100/49 118/101/50 104/102/49
f 111/103/51 118/101/50 120/104/50
f 119/105/52 110/106/51 111/103/51
f 105/107/53 117/108/52 119/105/52
f 108/109/53 121/110/54 115/111/54
f 112/112/55 115/111/54 121/110/54
f 122/113/56 109/114/55 112/112/55
f 103/115/57 116/116/56 122/113/56
f 108/109/53 123/117/54 107/118/53
f 115/111/54 113/119/55 123/117/54
f 116/116/56 113/119/55 109/114/55
f 106/120/57 124/121/56 116/116/56
f 104/102/49 126/122/50 100/123/49
f 110/106/51 126/122/50 118/101/50
f 117/108/52 114/124/51 110/106/51
f 108/109/53 125/125/58 117/108/52
f 101/100/49 120/104/50 118/101/50
f 111/103/51 110/106/51 118/101/50
f 119/105/52 117/108/52 110/106/51
f 105/107/53 108/109/53 117/108/52
f 108/109/53 105/107/53 121/110/54
f 112/112/55 109/114/55 115/111/54
f 122/113/56 116/116/56 109/114/55
f 103/115/57 106/120/57 116/116/56
f 108/109/53 115/111/54 123/117/54
f 115/111/54 109/114/55 113/119/55
f 116/116/56 124/121/56 113/119/55
f 106/120/57 102/126/57 124/121/56
f 104/102/49 118/101/50 126/122/50
f 110/106/51 114/124/51 126/122/50
f 117/108/52 125/125/58 114/124/51
f 108/109/53 107/118/53 125/125/58
o Grass
v 1.059138 -0.120884 -0.592879
v 0.004120 -0.120884 -0.166481
v -0.643390 8.059612 -4.805360
v -1.698408 8.059612 -4.378961
v 0.531630 -0.120884 -0.379680
v -0.531841 4.590712 -1.492583
v -1.170898 8.059612 -4.592160
v 0.523178 4.590712 -1.918982
v -0.004332 4.590712 -1.705782
v -0.508107 6.496740 -2.952247
v 0.363610 2.242590 -0.795403
v -0.163899 2.242590 -0.582203
v -1.035615 6.496740 -2.739048
v 0.019403 6.496739 -3.165447
v 0.891119 2.242590 -1.008602
v -0.240210 5.596582 -2.289404
v -0.844959 7.387507 -3.785707
v 0.205999 3.457070 -1.185370
v 0.462661 1.037822 -0.550327
v -0.321509 3.457070 -0.972171
v -0.064849 1.037822 -0.337128
v -0.767719 5.596582 -2.076205
v -1.372469 7.387507 -3.572507
v 0.287300 5.596582 -2.502603
v -0.317451 7.387507 -3.998906
v 0.733509 3.457070 -1.398569
v 0.990168 1.037822 -0.763526
vn -0.3701 -0.1569 -0.9157
vn -0.3681 -0.1864 -0.9109
vn -0.3681 -0.1865 -0.9109
vn -0.3606 -0.2723 -0.8921
vn -0.3456 -0.3863 -0.8552
vn -0.3617 -0.2713 -0.8919
vn -0.3274 -0.4863 -0.8101
vn -0.3453 -0.3863 -0.8553
vn -0.3062 -0.5764 -0.7576
vn -0.3256 -0.4877 -0.8100
vn -0.2784 -0.6694 -0.6888
vn -0.2481 -0.7494 -0.6139
vn -0.2817 -0.6673 -0.6894
vn -0.2291 -0.7913 -0.5669
vn -0.3062 -0.5765 -0.7576
vn -0.3682 -0.1861 -0.9109
vn -0.3457 -0.3858 -0.8553
vn -0.3605 -0.2725 -0.8921
vt 0.500000 0.000000
vt 0.552035 0.125000
vt 0.500000 0.125000
vt 0.552035 0.250000
vt 0.552035 0.375000
vt 0.500000 0.250000
vt 0.552035 0.500000
vt 0.500000 0.375000
vt 0.500000 0.625000
vt 0.500000 0.500000
vt 0.552035 0.750000
vt 0.552035 0.625000
vt 0.500000 0.875000
vt 0.500000 0.750000
vt 0.552035 1.000000
vt 0.552035 0.875000
vt 0.447965 0.625000
vt 0.447965 0.500000
vt 0.447965 0.750000
vt 0.500000 1.000000
vt 0.447965 0.875000
vt 0.447965 0.125000
vt 0.447965 0.000000
vt 0.447965 0.375000
vt 0.447965 0.250000
vt 0.552035 0.000000
vt 0.447965 1.000000
s 1
usemtl Grass:Grass_MAT
f 131/127/59 147/128/60 145/129/61
f 138/130/62 145/129/61 147/128/60
f 146/131/63 137/132/64 138/130/62
f 132/133/65 144/134/66 146/131/63
f 132/133/65 142/135/67 135/136/68
f 139/137/69 142/135/67 148/138/67
f 139/137/69 143/139/70 136/140/71
f 130/141/72 143/139/70 149/142/70
f 135/136/68 150/143/73 134/144/65
f 142/135/67 140/145/69 150/143/73
f 143/139/70 140/145/69 136/140/71
f 133/146/72 151/147/70 143/139/70
f 131/127/59 153/148/74 127/149/59
f 137/132/64 153/148/74 145/129/61
f 137/132/64 152/150/75 141/151/76
f 135/136/68 152/150/75 144/134/66
f 131/127/59 128/152/59 147/128/60
f 138/130/62 137/132/64 145/129/61
f 146/131/63 144/134/66 137/132/64
f 132/133/65 135/136/68 144/134/66
f 132/133/65 148/138/67 142/135/67
f 139/137/69 136/140/71 142/135/67
f 139/137/69 149/142/70 143/139/70
f 130/141/72 133/146/72 143/139/70
f 135/136/68 142/135/67 150/143/73
f 142/135/67 136/140/71 140/145/69
f 143/139/70 151/147/70 140/145/69
f 133/146/72 129/153/72 151/147/70
f 131/127/59 145/129/61 153/148/74
f 137/132/64 141/151/76 153/148/74
f 137/132/64 144/134/66 152/150/75
f 135/136/68 134/144/65 152/150/75
o Grass
v -0.004077 -0.070014 0.335963
v 1.050489 -0.070014 0.763473
v -1.823274 9.860101 4.823497
v -0.768709 9.860101 5.251007
v 0.523206 -0.070014 0.549718
v 0.520870 5.611523 2.069920
v -1.295992 9.860101 5.037252
v -0.533696 5.611523 1.642410
v -0.006413 5.611523 1.856165
v -0.544715 7.927587 3.184029
v 0.337892 2.779404 1.006846
v 0.865175 2.779404 1.220601
v -0.017431 7.927587 3.397784
v -1.071998 7.927587 2.970274
v -0.189391 2.779404 0.793091
v -0.254396 6.840271 2.467881
v -0.889609 8.915695 4.034802
v 0.185931 4.241498 1.381697
v 0.454520 1.335062 0.719150
v 0.713213 4.241498 1.595452
v 0.981804 1.335062 0.932905
v 0.272887 6.840271 2.681637
v -0.362327 8.915695 4.248558
v -0.781680 6.840271 2.254127
v -1.416892 8.915695 3.821048
v -0.341352 4.241498 1.167942
v -0.072763 1.335062 0.505395
vn -0.3726 -0.1290 0.9190
vn -0.3702 -0.1706 0.9132
vn -0.3649 -0.2385 0.9000
vn -0.3702 -0.1705 0.9132
vn -0.3574 -0.3079 0.8817
vn -0.3425 -0.4111 0.8448
vn -0.3581 -0.3086 0.8812
vn -0.3195 -0.5262 0.7881
vn -0.3195 -0.5261 0.7881
vn -0.2913 -0.6316 0.7185
vn -0.2611 -0.7191 0.6440
vn -0.2914 -0.6313 0.7187
vn -0.2471 -0.7533 0.6095
vn -0.2600 -0.7179 0.6457
vn -0.2912 -0.6317 0.7184
vn -0.3648 -0.2389 0.8999
vt 0.552035 0.000000
vt 0.500000 0.125000
vt 0.500000 0.000000
vt 0.552035 0.250000
vt 0.552035 0.125000
vt 0.552035 0.375000
vt 0.500000 0.250000
vt 0.500000 0.500000
vt 0.500000 0.375000
vt 0.552035 0.500000
vt 0.500000 0.625000
vt 0.552035 0.625000
vt 0.500000 0.750000
vt 0.552035 0.875000
vt 0.552035 0.750000
vt 0.552035 1.000000
vt 0.500000 0.875000
vt 0.447965 0.500000
vt 0.447965 0.625000
vt 0.447965 0.750000
vt 0.447965 1.000000
vt 0.447965 0.875000
vt 0.447965 0.000000
vt 0.447965 0.125000
vt 0.447965 0.250000
vt 0.447965 0.375000
vt 0.500000 1.000000
s 1
usemtl Grass:Grass_MAT
f 155/154/77 172/155/78 158/156/77
f 165/157/79 172/155/78 174/158/80
f 173/159/81 164/160/79 165/157/79
f 173/159/81 162/161/82 171/162/83
f 159/163/82 169/164/84 162/161/82
f 175/165/85 163/166/86 169/164/84
f 176/167/87 163/166/86 166/168/88
f 157/169/89 170/170/90 176/167/87
f 169/164/84 161/171/82 162/161/82
f 163/166/86 177/172/84 169/164/84
f 170/170/90 167/173/91 163/166/86
f 170/170/90 156/174/89 178/175/87
f 154/176/77 172/155/78 180/177/80
f 172/155/78 168/178/92 180/177/80
f 171/162/83 168/178/92 164/160/79
f 162/161/82 179/179/81 171/162/83
f 155/154/77 174/158/80 172/155/78
f 165/157/79 164/160/79 172/155/78
f 173/159/81 171/162/83 164/160/79
f 173/159/81 159/163/82 162/161/82
f 159/163/82 175/165/85 169/164/84
f 175/165/85 166/168/88 163/166/86
f 176/167/87 170/170/90 163/166/86
f 157/169/89 160/180/89 170/170/90
f 169/164/84 177/172/84 161/171/82
f 163/166/86 167/173/91 177/172/84
f 170/170/90 178/175/87 167/173/91
f 170/170/90 160/180/89 156/174/89
f 154/176/77 158/156/77 172/155/78
f 172/155/78 164/160/79 168/178/92
f 171/162/83 179/179/81 168/178/92
f 162/161/82 161/171/82 179/179/81
o Grass
v -2.207912 -0.137408 -0.989789
v -1.161408 -0.021452 -0.558214
v -3.678696 7.029448 0.651037
v -2.632192 7.145403 1.082612
v -1.684659 -0.079430 -0.774001
v -1.896799 3.561976 0.262199
v -3.155445 7.087425 0.866824
v -2.943305 3.446019 -0.169376
v -2.420054 3.503998 0.046412
v -2.787750 5.295711 0.456618
v -2.052356 1.712285 -0.363795
v -1.529103 1.770262 -0.148007
v -2.264496 5.353690 0.672406
v -3.311001 5.237734 0.240830
v -2.575610 1.654306 -0.579583
v -2.603900 4.399855 0.251515
v -2.971595 6.191568 0.661721
v -2.236204 2.608141 -0.158692
v -1.868509 0.816427 -0.568898
v -1.712953 2.666119 0.057096
v -1.345256 0.874406 -0.353110
v -2.080649 4.457833 0.467303
v -2.448344 6.249547 0.877509
v -3.127151 4.341877 0.035727
v -3.494848 6.133590 0.445933
v -2.759455 2.550163 -0.374479
v -2.391760 0.758449 -0.784686
vn -0.3402 -0.2757 0.8990
vt 0.552035 0.000000
vt 0.500000 0.125000
vt 0.500000 0.000000
vt 0.552035 0.250000
vt 0.552035 0.125000
vt 0.552035 0.375000
vt 0.500000 0.250000
vt 0.500000 0.500000
vt 0.500000 0.375000
vt 0.552035 0.500000
vt 0.500000 0.625000
vt 0.552035 0.750000
vt 0.552035 0.625000
vt 0.500000 0.875000
vt 0.500000 0.750000
vt 0.552035 1.000000
vt 0.552035 0.875000
vt 0.447965 0.625000
vt 0.447965 0.500000
vt 0.447965 0.875000
vt 0.447965 0.750000
vt 0.500000 1.000000
vt 0.447965 0.000000
vt 0.447965 0.125000
vt 0.447965 0.375000
vt 0.447965 0.250000
vt 0.447965 1.000000
s 1
usemtl Grass:Grass_MAT
f 182/181/93 199/182/93 185/183/93
f 192/184/93 199/182/93 201/185/93
f 200/186/93 191/187/93 192/184/93
f 200/186/93 189/188/93 198/189/93
f 186/190/93 196/191/93 189/188/93
f 193/192/93 196/191/93 202/193/93
f 193/192/93 197/194/93 190/195/93
f 184/196/93 197/194/93 203/197/93
f 189/188/93 204/198/93 188/199/93
f 190/195/93 204/198/93 196/191/93
f 190/195/93 205/200/93 194/201/93
f 187/202/93 205/200/93 197/194/93
f 181/203/93 199/182/93 207/204/93
f 191/187/93 207/204/93 199/182/93
f 191/187/93 206/205/93 195/206/93
f 189/188/93 206/205/93 198/189/93
f 182/181/93 201/185/93 199/182/93
f 192/184/93 191/187/93 199/182/93
f 200/186/93 198/189/93 191/187/93
f 200/186/93 186/190/93 189/188/93
f 186/190/93 202/193/93 196/191/93
f 193/192/93 190/195/93 196/191/93
f 193/192/93 203/197/93 197/194/93
f 184/196/93 187/202/93 197/194/93
f 189/188/93 196/191/93 204/198/93
f 190/195/93 194/201/93 204/198/93
f 190/195/93 197/194/93 205/200/93
f 187/202/93 183/207/93 205/200/93
f 181/203/93 185/183/93 199/182/93
f 191/187/93 195/206/93 207/204/93
f 191/187/93 198/189/93 206/205/93
f 189/188/93 188/199/93 206/205/93
